<svg version="1.2" xmlns="http://www.w3.org/2000/svg" viewBox="190 140 210 270">
	<title>FijnwolLogoYellow</title>
	<style>
		.s0 { fill: #e3c62c } 
		.s1 { fill: #231f20 } 
		.s2 { fill: #fefefe } 
	</style>
	<g id="Layer 1">
		<g id="&lt;Group&gt;">
			<path id="&lt;Path&gt;" class="s0" d="m391.6 293.2c0 62.7-44.5 113.4-99.2 113.4-54.8 0-99.3-50.7-99.3-113.4 0-62.6 44.5-113.3 99.3-113.3 54.7 0 99.2 50.7 99.2 113.3z"/>
			<g id="&lt;Group&gt;">
				<path id="&lt;Path&gt;" class="s1" d="m388.7 294c-0.2 42.8-22.7 87.8-63.8 104.8-18.7 7.7-40 8.2-59.2 1.5-19.4-6.7-35.9-20.1-47.7-36.8-26.3-37-29.1-89.1-7.8-129.1 9.7-18.2 24.3-33.9 42.8-43.6 18-9.4 39-11.7 58.6-6.9 42.5 10.5 70.5 51.3 76 93.2 0.7 5.6 1.1 11.2 1.1 16.9 0 1.7 5.8 0.6 5.8-1.5-0.2-44.7-24.3-90.7-67.3-107.8-20-7.9-42.6-8.5-63-1.7-20.5 6.8-38.2 20.3-50.8 37.8-27.8 38.1-30.7 92-8.1 133.2 10.3 18.9 25.9 35 45.3 44.7 19.3 9.6 41.6 11.9 62.6 6.9 44.3-10.6 74.4-51.9 80.2-95.8 0.7-5.7 1-11.5 1.1-17.3 0-1.7-5.8-0.7-5.8 1.5z"/>
			</g>
		</g>
		<g id="&lt;Group&gt;">
			<path id="&lt;Path&gt;" class="s2" d="m263.5 401.7v-217"/>
			<g id="&lt;Group&gt;">
				<path id="&lt;Path&gt;" class="s1" d="m266.4 401q0-10.9 0-21.7 0-25.8 0-51.7 0-31.4 0-62.8 0-27.1 0-54.1 0-8.9 0-17.8 0-2.8 0-5.6c0-0.9 0.2-2.2 0-2.9-0.1-0.2 0-0.3 0-0.4 0-0.8-5.8 0-5.8 1.5q0 10.8 0 21.7 0 25.8 0 51.7 0 31.4 0 62.8 0 27 0 54.1 0 8.9 0 17.8 0 2.8 0 5.6c0 0.8-0.3 2.2 0 2.9 0 0.1 0 0.3 0 0.4 0 0.8 5.8 0 5.8-1.5z"/>
			</g>
		</g>
		<g id="&lt;Group&gt;">
			<path id="&lt;Path&gt;" class="s2" d="m196.6 268.8h64.5"/>
			<g id="&lt;Group&gt;">
				<path id="&lt;Path&gt;" class="s1" d="m195.5 270.6q28.2 0 56.4 0 4 0 8.1 0c1.2 0 3.2-0.4 3.8-1.7 0.5-1.1-0.5-1.8-1.6-1.8q-28.2 0-56.4 0-4 0-8.1 0c-1.2 0-3.2 0.3-3.8 1.6-0.6 1.2 0.5 1.9 1.6 1.9z"/>
			</g>
		</g>
		<g id="&lt;Group&gt;">
			<g id="&lt;Group&gt;">
				<path id="&lt;Path&gt;" class="s1" d="m266 182.5c-0.5-10.1 2.7-20.2 10.3-27.1 7-6.4 16.1-9 25.4-9.1 25.5-0.6 48.9 15.3 61.7 36.8 10.1 16.9 13.7 37 13.3 56.5 0 2.5 5.8 1.3 5.8-0.7 0.4-18.5-2.6-37.4-11.4-54-6.8-12.8-16.7-23.8-29.1-31.4-19.6-11.9-48.1-16-67.6-1.4-10.2 7.6-14.8 19.4-14.2 32 0.1 1.9 5.9 0.7 5.8-1.6z"/>
			</g>
		</g>
	</g>
</svg>